<?xml version="1.0" encoding="UTF-8" standalone="no"?><!DOCTYPE svg PUBLIC "-//W3C//DTD SVG 1.1//EN" "http://www.w3.org/Graphics/SVG/1.1/DTD/svg11.dtd"><svg width="100%" height="100%" viewBox="0 0 432 432" version="1.1" xmlns="http://www.w3.org/2000/svg" xmlns:xlink="http://www.w3.org/1999/xlink" xml:space="preserve" xmlns:serif="http://www.serif.com/" style="fill-rule:evenodd;clip-rule:evenodd;stroke-linecap:round;stroke-miterlimit:1.5;"><rect x="5.544" y="318.771" width="288" height="108" style="fill:#fff;stroke:#000;stroke-width:10px;"/><rect x="303.141" y="296.211" width="123.718" height="108" style="fill:#fff;stroke:#000;stroke-width:10px;"/><ellipse cx="365" cy="350.211" rx="33.511" ry="36" style="fill:#1cf10f;stroke:#000;stroke-width:7.5px;"/><rect x="354.467" y="116.136" width="72" height="72" style="fill:#fff;stroke:#000;stroke-width:10px;"/><g><rect x="4.731" y="152.244" width="170.371" height="144" style="fill:#fff;stroke:#000;stroke-width:10px;"/><path d="M149.547,189.144c0,-10.431 -8.469,-18.9 -18.9,-18.9l-81.46,0c-10.431,0 -18.9,8.469 -18.9,18.9l0,37.8c0,10.432 8.469,18.9 18.9,18.9l19.86,0l-14.908,32.4l32.797,-32.4l43.711,0c10.431,0 18.9,-8.468 18.9,-18.9l0,-37.8Z" style="fill:#3641d2;stroke:#000;stroke-width:7.5px;"/><g><path d="M58.273,76.985c0,44.882 0,43.124 0,43.124" style="fill:none;stroke:#000;stroke-width:7.5px;"/><path d="M88.791,96.851c0,44.882 0,43.124 0,43.124" style="fill:none;stroke:#000;stroke-width:7.5px;"/><path d="M119.31,76.985c0,44.882 0,43.124 0,43.124" style="fill:none;stroke:#000;stroke-width:7.5px;"/><path d="M149.828,96.851c0,44.882 0,43.124 0,43.124" style="fill:none;stroke:#000;stroke-width:7.5px;"/><path d="M27.755,96.851c0,44.882 0,43.124 0,43.124" style="fill:none;stroke:#000;stroke-width:7.5px;"/></g></g><g><rect x="185.155" y="79.339" width="108" height="180" style="fill:#fff;stroke:#000;stroke-width:10px;"/><path d="M238.991,169.339l36.059,74.981l-36,0.019l-36,0.02l35.941,-75.02l0,0l-36.058,-74.98l72,-0.039l-35.942,75.019l0,0Z" style="fill:#f1ee0f;stroke:#000;stroke-width:7.5px;"/><g><path d="M239.155,4.351c0,44.882 0,43.124 0,43.124" style="fill:none;stroke:#000;stroke-width:7.5px;"/><path d="M271.398,24.217c0,44.883 0,43.124 0,43.124" style="fill:none;stroke:#000;stroke-width:7.5px;"/><path d="M206.912,24.217c0,44.883 0,43.124 0,43.124" style="fill:none;stroke:#000;stroke-width:7.5px;"/></g></g><g><path d="M374.345,42.11c0,44.883 0,43.124 0,43.124" style="fill:none;stroke:#000;stroke-width:7.5px;"/><path d="M406.588,61.976c0,44.883 0,43.125 0,43.125" style="fill:none;stroke:#000;stroke-width:7.5px;"/></g><g><path d="M365,221.491c0,44.882 0,43.124 0,43.124" style="fill:none;stroke:#000;stroke-width:7.5px;"/><path d="M395.013,241.357c0,44.883 0,43.124 0,43.124" style="fill:none;stroke:#000;stroke-width:7.5px;"/><path d="M334.986,241.357c0,44.883 0,43.124 0,43.124" style="fill:none;stroke:#000;stroke-width:7.5px;"/></g><path d="M390.467,140.718c3.789,-7.2 11.368,-7.2 15.157,-3.6c3.79,3.6 3.79,10.8 0,18c-2.652,5.4 -9.473,10.8 -15.157,14.4c-5.685,-3.6 -12.506,-9 -15.158,-14.4c-3.79,-7.2 -3.79,-14.4 0,-18c3.789,-3.6 11.368,-3.6 15.158,3.6Z" style="fill:#d23636;stroke:#000;stroke-width:7.5px;"/><text x="13.776px" y="394.096px" style="font-family:'Meiryo-Bold', 'Meiryo', sans-serif;font-weight:700;font-size:58px;fill:#9300ff;">SPRITEY</text></svg>